<mxfile host="app.diagrams.net" modified="2022-01-30T00:03:05.408Z" agent="5.0 (Macintosh)" etag="SMgsfhUmuHTwvD4lpqMw" version="16.5.2" type="github">
  <diagram id="tlBltchDa7-FfRqD1T6b" name="Page-1">
    <mxGraphModel dx="690" dy="553" grid="1" gridSize="10" guides="1" tooltips="1" connect="1" arrows="1" fold="1" page="1" pageScale="1" pageWidth="850" pageHeight="1100" math="0" shadow="0">
      <root>
        <mxCell id="0" />
        <mxCell id="1" parent="0" />
        <mxCell id="fM-geqWQV5WMiNuKjGQn-1" value="" style="ellipse;whiteSpace=wrap;html=1;aspect=fixed;rotation=0;" parent="1" vertex="1">
          <mxGeometry x="500" y="150" width="80" height="80" as="geometry" />
        </mxCell>
        <mxCell id="PXfqVfP6rs75VTVcAjP2-1" value="Vertical Container" style="swimlane;" vertex="1" parent="1">
          <mxGeometry x="80" y="260" width="200" height="200" as="geometry" />
        </mxCell>
        <mxCell id="PXfqVfP6rs75VTVcAjP2-2" value="" style="triangle;whiteSpace=wrap;html=1;" vertex="1" parent="1">
          <mxGeometry x="425" y="300" width="60" height="80" as="geometry" />
        </mxCell>
      </root>
    </mxGraphModel>
  </diagram>
</mxfile>
